<mxfile host="65bd71144e">
    <diagram name="Page-1" id="2YBvvXClWsGukQMizWep">
        <mxGraphModel dx="1225" dy="214" grid="1" gridSize="10" guides="1" tooltips="1" connect="1" arrows="1" fold="1" page="1" pageScale="1" pageWidth="850" pageHeight="1100" math="0" shadow="0">
            <root>
                <mxCell id="0"/>
                <mxCell id="1" parent="0"/>
                <mxCell id="201" value="access mypage &lt;br&gt;to getTravelPlanDetails" style="html=1;verticalAlign=bottom;startArrow=oval;endArrow=block;startSize=8;edgeStyle=elbowEdgeStyle;elbow=vertical;curved=0;rounded=0;" edge="1" parent="1">
                    <mxGeometry x="0.0208" relative="1" as="geometry">
                        <mxPoint x="132" y="690" as="sourcePoint"/>
                        <mxPoint x="264" y="690" as="targetPoint"/>
                        <Array as="points"/>
                        <mxPoint as="offset"/>
                    </mxGeometry>
                </mxCell>
                <mxCell id="ti7OjyQPhwodmMIkzD1--30" value="logged in" style="shape=umlFrame;whiteSpace=wrap;html=1;pointerEvents=0;fillColor=#d5e8d4;strokeColor=#82b366;width=90;height=30;" parent="1" vertex="1">
                    <mxGeometry x="20" y="330" width="830" height="220" as="geometry"/>
                </mxCell>
                <mxCell id="139" value="find username&lt;br&gt;to getTravelPlans" style="html=1;verticalAlign=bottom;endArrow=none;edgeStyle=elbowEdgeStyle;elbow=vertical;curved=0;rounded=0;startArrow=block;startFill=1;endFill=0;" edge="1" parent="1">
                    <mxGeometry x="-0.0035" y="36" relative="1" as="geometry">
                        <mxPoint x="822.3" y="344" as="sourcePoint"/>
                        <Array as="points">
                            <mxPoint x="804.3" y="344"/>
                            <mxPoint x="964.3" y="244"/>
                        </Array>
                        <mxPoint x="623.0000000000002" y="344" as="targetPoint"/>
                        <mxPoint as="offset"/>
                    </mxGeometry>
                </mxCell>
                <mxCell id="137" value="exist" style="shape=umlFrame;whiteSpace=wrap;html=1;pointerEvents=0;fillColor=#d5e8d4;strokeColor=#82b366;width=90;height=30;" parent="1" vertex="1">
                    <mxGeometry x="30" y="488" width="810" height="52" as="geometry"/>
                </mxCell>
                <mxCell id="96" value="response BAD REQUEST" style="html=1;verticalAlign=bottom;endArrow=open;dashed=1;endSize=8;edgeStyle=elbowEdgeStyle;elbow=vertical;curved=0;rounded=0;" parent="1" edge="1">
                    <mxGeometry x="0.1478" relative="1" as="geometry">
                        <mxPoint x="613.95" y="290.66999999999996" as="sourcePoint"/>
                        <mxPoint x="450.99545454545444" y="290.66999999999996" as="targetPoint"/>
                        <mxPoint as="offset"/>
                        <Array as="points">
                            <mxPoint x="623.95" y="290.66999999999996"/>
                        </Array>
                    </mxGeometry>
                </mxCell>
                <mxCell id="ti7OjyQPhwodmMIkzD1--58" value="response travelPlanData" style="html=1;verticalAlign=bottom;endArrow=open;dashed=1;endSize=8;edgeStyle=elbowEdgeStyle;elbow=vertical;curved=0;rounded=0;" parent="1" edge="1">
                    <mxGeometry x="0.0877" relative="1" as="geometry">
                        <mxPoint x="619" y="511.2" as="sourcePoint"/>
                        <mxPoint x="452" y="511.49999999999994" as="targetPoint"/>
                        <mxPoint as="offset"/>
                    </mxGeometry>
                </mxCell>
                <mxCell id="ti7OjyQPhwodmMIkzD1--45" value="response BAD REQUEST" style="html=1;verticalAlign=bottom;endArrow=open;dashed=1;endSize=8;edgeStyle=elbowEdgeStyle;elbow=vertical;curved=0;rounded=0;" parent="1" edge="1">
                    <mxGeometry x="0.1478" relative="1" as="geometry">
                        <mxPoint x="614.95" y="451.5" as="sourcePoint"/>
                        <mxPoint x="451.9954545454545" y="451.5" as="targetPoint"/>
                        <mxPoint as="offset"/>
                        <Array as="points">
                            <mxPoint x="624.95" y="451.5"/>
                        </Array>
                    </mxGeometry>
                </mxCell>
                <mxCell id="ti7OjyQPhwodmMIkzD1--9" value="request to getTravelPlans" style="html=1;verticalAlign=bottom;startArrow=oval;endArrow=block;startSize=8;edgeStyle=elbowEdgeStyle;elbow=vertical;curved=0;rounded=0;" parent="1" source="ti7OjyQPhwodmMIkzD1--5" target="aM9ryv3xv72pqoxQDRHE-2" edge="1">
                    <mxGeometry x="0.0116" relative="1" as="geometry">
                        <mxPoint x="278.99999999999994" y="234.0188679245283" as="sourcePoint"/>
                        <mxPoint x="450" y="234" as="targetPoint"/>
                        <Array as="points"/>
                        <mxPoint as="offset"/>
                    </mxGeometry>
                </mxCell>
                <mxCell id="aM9ryv3xv72pqoxQDRHE-3" value="access mypage &lt;br&gt;to getTravelPlans" style="html=1;verticalAlign=bottom;startArrow=oval;endArrow=block;startSize=8;edgeStyle=elbowEdgeStyle;elbow=vertical;curved=0;rounded=0;" parent="1" edge="1">
                    <mxGeometry x="0.0208" relative="1" as="geometry">
                        <mxPoint x="131" y="230" as="sourcePoint"/>
                        <mxPoint x="263" y="230" as="targetPoint"/>
                        <Array as="points"/>
                        <mxPoint as="offset"/>
                    </mxGeometry>
                </mxCell>
                <mxCell id="aM9ryv3xv72pqoxQDRHE-1" value="FrontEnd" style="shape=umlLifeline;perimeter=lifelinePerimeter;whiteSpace=wrap;html=1;container=0;dropTarget=0;collapsible=0;recursiveResize=0;outlineConnect=0;portConstraint=eastwest;newEdgeStyle={&quot;edgeStyle&quot;:&quot;elbowEdgeStyle&quot;,&quot;elbow&quot;:&quot;vertical&quot;,&quot;curved&quot;:0,&quot;rounded&quot;:0};" parent="1" vertex="1">
                    <mxGeometry x="397" y="160" width="100" height="850" as="geometry"/>
                </mxCell>
                <mxCell id="aM9ryv3xv72pqoxQDRHE-2" value="" style="html=1;points=[];perimeter=orthogonalPerimeter;outlineConnect=0;targetShapes=umlLifeline;portConstraint=eastwest;newEdgeStyle={&quot;edgeStyle&quot;:&quot;elbowEdgeStyle&quot;,&quot;elbow&quot;:&quot;vertical&quot;,&quot;curved&quot;:0,&quot;rounded&quot;:0};" parent="aM9ryv3xv72pqoxQDRHE-1" vertex="1">
                    <mxGeometry x="45" y="60" width="10" height="40" as="geometry"/>
                </mxCell>
                <mxCell id="aM9ryv3xv72pqoxQDRHE-5" value="BackEnd" style="shape=umlLifeline;perimeter=lifelinePerimeter;whiteSpace=wrap;html=1;container=0;dropTarget=0;collapsible=0;recursiveResize=0;outlineConnect=0;portConstraint=eastwest;newEdgeStyle={&quot;edgeStyle&quot;:&quot;elbowEdgeStyle&quot;,&quot;elbow&quot;:&quot;vertical&quot;,&quot;curved&quot;:0,&quot;rounded&quot;:0};" parent="1" vertex="1">
                    <mxGeometry x="573" y="160" width="100" height="850" as="geometry"/>
                </mxCell>
                <mxCell id="aM9ryv3xv72pqoxQDRHE-6" value="" style="html=1;points=[];perimeter=orthogonalPerimeter;outlineConnect=0;targetShapes=umlLifeline;portConstraint=eastwest;newEdgeStyle={&quot;edgeStyle&quot;:&quot;elbowEdgeStyle&quot;,&quot;elbow&quot;:&quot;vertical&quot;,&quot;curved&quot;:0,&quot;rounded&quot;:0};" parent="aM9ryv3xv72pqoxQDRHE-5" vertex="1">
                    <mxGeometry x="45" y="120" width="10" height="140" as="geometry"/>
                </mxCell>
                <mxCell id="ti7OjyQPhwodmMIkzD1--40" value="" style="html=1;points=[];perimeter=orthogonalPerimeter;outlineConnect=0;targetShapes=umlLifeline;portConstraint=eastwest;newEdgeStyle={&quot;edgeStyle&quot;:&quot;elbowEdgeStyle&quot;,&quot;elbow&quot;:&quot;vertical&quot;,&quot;curved&quot;:0,&quot;rounded&quot;:0};" parent="aM9ryv3xv72pqoxQDRHE-5" vertex="1">
                    <mxGeometry x="45" y="274" width="10" height="86" as="geometry"/>
                </mxCell>
                <mxCell id="ti7OjyQPhwodmMIkzD1--1" value="" style="shape=umlLifeline;perimeter=lifelinePerimeter;whiteSpace=wrap;html=1;container=1;dropTarget=0;collapsible=0;recursiveResize=0;outlineConnect=0;portConstraint=eastwest;newEdgeStyle={&quot;edgeStyle&quot;:&quot;elbowEdgeStyle&quot;,&quot;elbow&quot;:&quot;vertical&quot;,&quot;curved&quot;:0,&quot;rounded&quot;:0};participant=umlActor;" parent="1" vertex="1">
                    <mxGeometry x="121" y="160" width="20" height="850" as="geometry"/>
                </mxCell>
                <mxCell id="ti7OjyQPhwodmMIkzD1--8" value="" style="html=1;points=[];perimeter=orthogonalPerimeter;outlineConnect=0;targetShapes=umlLifeline;portConstraint=eastwest;newEdgeStyle={&quot;edgeStyle&quot;:&quot;elbowEdgeStyle&quot;,&quot;elbow&quot;:&quot;vertical&quot;,&quot;curved&quot;:0,&quot;rounded&quot;:0};" parent="ti7OjyQPhwodmMIkzD1--1" vertex="1">
                    <mxGeometry x="5" y="65" width="10" height="765" as="geometry"/>
                </mxCell>
                <mxCell id="ti7OjyQPhwodmMIkzD1--3" value="&lt;font style=&quot;font-size: 22px;&quot;&gt;내 일정 전체 조회 / &lt;br&gt;각 일정 상세 조회&lt;br&gt;getTravelPlan API&lt;br&gt;&lt;/font&gt;" style="text;html=1;strokeColor=none;fillColor=none;align=center;verticalAlign=middle;whiteSpace=wrap;rounded=0;" parent="1" vertex="1">
                    <mxGeometry x="-2" y="43" width="239" height="75" as="geometry"/>
                </mxCell>
                <mxCell id="ti7OjyQPhwodmMIkzD1--5" value="WebBrowser" style="shape=umlLifeline;perimeter=lifelinePerimeter;whiteSpace=wrap;html=1;container=1;dropTarget=0;collapsible=0;recursiveResize=0;outlineConnect=0;portConstraint=eastwest;newEdgeStyle={&quot;edgeStyle&quot;:&quot;elbowEdgeStyle&quot;,&quot;elbow&quot;:&quot;vertical&quot;,&quot;curved&quot;:0,&quot;rounded&quot;:0};" parent="1" vertex="1">
                    <mxGeometry x="221" y="160" width="100" height="850" as="geometry"/>
                </mxCell>
                <mxCell id="ti7OjyQPhwodmMIkzD1--7" value="" style="html=1;points=[];perimeter=orthogonalPerimeter;outlineConnect=0;targetShapes=umlLifeline;portConstraint=eastwest;newEdgeStyle={&quot;edgeStyle&quot;:&quot;elbowEdgeStyle&quot;,&quot;elbow&quot;:&quot;vertical&quot;,&quot;curved&quot;:0,&quot;rounded&quot;:0};" parent="ti7OjyQPhwodmMIkzD1--5" vertex="1">
                    <mxGeometry x="45" y="60" width="10" height="30" as="geometry"/>
                </mxCell>
                <mxCell id="ti7OjyQPhwodmMIkzD1--6" value="DB" style="shape=umlLifeline;perimeter=lifelinePerimeter;whiteSpace=wrap;html=1;container=1;dropTarget=0;collapsible=0;recursiveResize=0;outlineConnect=0;portConstraint=eastwest;newEdgeStyle={&quot;edgeStyle&quot;:&quot;elbowEdgeStyle&quot;,&quot;elbow&quot;:&quot;vertical&quot;,&quot;curved&quot;:0,&quot;rounded&quot;:0};" parent="1" vertex="1">
                    <mxGeometry x="778" y="160" width="100" height="850" as="geometry"/>
                </mxCell>
                <mxCell id="ti7OjyQPhwodmMIkzD1--29" value="" style="html=1;verticalAlign=bottom;endArrow=open;dashed=1;endSize=8;edgeStyle=elbowEdgeStyle;elbow=vertical;curved=0;rounded=0;" parent="1" edge="1">
                    <mxGeometry relative="1" as="geometry">
                        <mxPoint x="442" y="291" as="sourcePoint"/>
                        <mxPoint x="136" y="291" as="targetPoint"/>
                        <Array as="points">
                            <mxPoint x="370" y="291"/>
                        </Array>
                    </mxGeometry>
                </mxCell>
                <mxCell id="ti7OjyQPhwodmMIkzD1--34" value="&lt;font style=&quot;font-size: 11px;&quot;&gt;redirect to login page&lt;br&gt;&lt;/font&gt;" style="text;html=1;align=center;verticalAlign=middle;resizable=0;points=[];autosize=1;strokeColor=none;fillColor=none;" parent="1" vertex="1">
                    <mxGeometry x="230" y="266" width="130" height="30" as="geometry"/>
                </mxCell>
                <mxCell id="ti7OjyQPhwodmMIkzD1--46" value="" style="html=1;points=[];perimeter=orthogonalPerimeter;outlineConnect=0;targetShapes=umlLifeline;portConstraint=eastwest;newEdgeStyle={&quot;edgeStyle&quot;:&quot;elbowEdgeStyle&quot;,&quot;elbow&quot;:&quot;vertical&quot;,&quot;curved&quot;:0,&quot;rounded&quot;:0};" parent="1" vertex="1">
                    <mxGeometry x="442" y="440" width="10" height="25" as="geometry"/>
                </mxCell>
                <mxCell id="ti7OjyQPhwodmMIkzD1--59" value="show travelPlanData" style="html=1;verticalAlign=bottom;endArrow=open;dashed=1;endSize=8;edgeStyle=elbowEdgeStyle;elbow=vertical;curved=0;rounded=0;" parent="1" edge="1">
                    <mxGeometry x="-0.0791" relative="1" as="geometry">
                        <mxPoint x="270" y="520" as="sourcePoint"/>
                        <mxPoint x="137" y="520.02" as="targetPoint"/>
                        <mxPoint as="offset"/>
                        <Array as="points"/>
                    </mxGeometry>
                </mxCell>
                <mxCell id="ti7OjyQPhwodmMIkzD1--67" value="" style="html=1;points=[];perimeter=orthogonalPerimeter;outlineConnect=0;targetShapes=umlLifeline;portConstraint=eastwest;newEdgeStyle={&quot;edgeStyle&quot;:&quot;elbowEdgeStyle&quot;,&quot;elbow&quot;:&quot;vertical&quot;,&quot;curved&quot;:0,&quot;rounded&quot;:0};" parent="1" vertex="1">
                    <mxGeometry x="442" y="490" width="10" height="39" as="geometry"/>
                </mxCell>
                <mxCell id="2" value="show default message" style="html=1;verticalAlign=bottom;endArrow=open;dashed=1;endSize=8;edgeStyle=elbowEdgeStyle;elbow=horizontal;curved=0;rounded=0;" parent="1" edge="1">
                    <mxGeometry x="-0.0769" relative="1" as="geometry">
                        <mxPoint x="439.5" y="451.5" as="sourcePoint"/>
                        <mxPoint x="136.5" y="451.5" as="targetPoint"/>
                        <mxPoint as="offset"/>
                        <Array as="points">
                            <mxPoint x="349.5" y="451.5"/>
                        </Array>
                    </mxGeometry>
                </mxCell>
                <mxCell id="9" value="" style="html=1;points=[];perimeter=orthogonalPerimeter;outlineConnect=0;targetShapes=umlLifeline;portConstraint=eastwest;newEdgeStyle={&quot;edgeStyle&quot;:&quot;elbowEdgeStyle&quot;,&quot;elbow&quot;:&quot;vertical&quot;,&quot;curved&quot;:0,&quot;rounded&quot;:0};" parent="1" vertex="1">
                    <mxGeometry x="266" y="502" width="10" height="32" as="geometry"/>
                </mxCell>
                <mxCell id="10" value="render mypage" style="html=1;verticalAlign=bottom;endArrow=open;dashed=1;endSize=8;edgeStyle=elbowEdgeStyle;elbow=vertical;curved=0;rounded=0;" parent="1" source="ti7OjyQPhwodmMIkzD1--67" edge="1">
                    <mxGeometry x="-0.0799" relative="1" as="geometry">
                        <mxPoint x="409" y="519.34" as="sourcePoint"/>
                        <mxPoint x="276" y="519.36" as="targetPoint"/>
                        <mxPoint as="offset"/>
                        <Array as="points"/>
                    </mxGeometry>
                </mxCell>
                <mxCell id="13" value="getTravelPlans&lt;br&gt;ByUsername" style="text;html=1;align=center;verticalAlign=middle;resizable=0;points=[];autosize=1;strokeColor=none;fillColor=none;fontSize=12;fontFamily=Helvetica;fontColor=default;" parent="1" vertex="1">
                    <mxGeometry x="22" y="210" width="100" height="40" as="geometry"/>
                </mxCell>
                <mxCell id="93" value="request getTravelPlans&lt;br&gt;ByUsername&amp;nbsp;api" style="html=1;verticalAlign=bottom;endArrow=none;edgeStyle=elbowEdgeStyle;elbow=vertical;curved=0;rounded=0;startArrow=block;startFill=1;endFill=0;" parent="1" edge="1">
                    <mxGeometry x="-0.0017" relative="1" as="geometry">
                        <mxPoint x="618" y="240" as="sourcePoint"/>
                        <Array as="points">
                            <mxPoint x="600" y="240"/>
                            <mxPoint x="760" y="140"/>
                        </Array>
                        <mxPoint x="452" y="240" as="targetPoint"/>
                        <mxPoint as="offset"/>
                    </mxGeometry>
                </mxCell>
                <mxCell id="94" value="" style="html=1;points=[];perimeter=orthogonalPerimeter;outlineConnect=0;targetShapes=umlLifeline;portConstraint=eastwest;newEdgeStyle={&quot;edgeStyle&quot;:&quot;elbowEdgeStyle&quot;,&quot;elbow&quot;:&quot;vertical&quot;,&quot;curved&quot;:0,&quot;rounded&quot;:0};" parent="1" vertex="1">
                    <mxGeometry x="618" y="220.98" width="10" height="40" as="geometry"/>
                </mxCell>
                <mxCell id="95" value="check validateToken api" style="html=1;align=left;spacingLeft=2;endArrow=block;rounded=0;edgeStyle=orthogonalEdgeStyle;curved=0;rounded=0;" parent="1" edge="1">
                    <mxGeometry x="-0.1985" y="14" relative="1" as="geometry">
                        <mxPoint x="628" y="247.0144827586207" as="sourcePoint"/>
                        <Array as="points">
                            <mxPoint x="628" y="240"/>
                            <mxPoint x="656" y="240"/>
                            <mxPoint x="656" y="290"/>
                        </Array>
                        <mxPoint x="629" y="290" as="targetPoint"/>
                        <mxPoint as="offset"/>
                    </mxGeometry>
                </mxCell>
                <mxCell id="97" value="" style="html=1;points=[];perimeter=orthogonalPerimeter;outlineConnect=0;targetShapes=umlLifeline;portConstraint=eastwest;newEdgeStyle={&quot;edgeStyle&quot;:&quot;elbowEdgeStyle&quot;,&quot;elbow&quot;:&quot;vertical&quot;,&quot;curved&quot;:0,&quot;rounded&quot;:0};" parent="1" vertex="1">
                    <mxGeometry x="442" y="279" width="10" height="32" as="geometry"/>
                </mxCell>
                <mxCell id="128" value="&lt;p style=&quot;margin:0px;margin-top:4px;text-align:center;text-decoration:underline;&quot;&gt;&lt;b&gt;travelPlanData&lt;/b&gt;&lt;/p&gt;&lt;p style=&quot;margin: 0px; font-variant-numeric: normal; font-variant-east-asian: normal; font-stretch: normal; font-size: 13px; line-height: normal; font-family: &amp;quot;Helvetica Neue&amp;quot;;&quot; class=&quot;p1&quot;&gt;&lt;br&gt;&lt;/p&gt;&lt;p style=&quot;margin: 0px; font-variant-numeric: normal; font-variant-east-asian: normal; font-stretch: normal; font-size: 13px; line-height: normal; font-family: &amp;quot;Helvetica Neue&amp;quot;;&quot; class=&quot;p1&quot;&gt;&lt;span class=&quot;Apple-converted-space&quot;&gt;&amp;nbsp;&lt;br&gt;&lt;/span&gt;&lt;/p&gt;" style="verticalAlign=top;align=left;overflow=fill;fontSize=12;fontFamily=Helvetica;html=1;whiteSpace=wrap;" parent="1" vertex="1">
                    <mxGeometry x="248.5" y="9.5" width="373" height="130.5" as="geometry"/>
                </mxCell>
                <mxCell id="ti7OjyQPhwodmMIkzD1--27" value="not logged in" style="shape=umlFrame;whiteSpace=wrap;html=1;pointerEvents=0;fillColor=#f8cecc;strokeColor=#b85450;width=90;height=26;" parent="1" vertex="1">
                    <mxGeometry x="20" y="261.98" width="620" height="56" as="geometry"/>
                </mxCell>
                <mxCell id="140" value="" style="html=1;points=[];perimeter=orthogonalPerimeter;outlineConnect=0;targetShapes=umlLifeline;portConstraint=eastwest;newEdgeStyle={&quot;edgeStyle&quot;:&quot;elbowEdgeStyle&quot;,&quot;elbow&quot;:&quot;vertical&quot;,&quot;curved&quot;:0,&quot;rounded&quot;:0};" vertex="1" parent="1">
                    <mxGeometry x="823" y="335" width="10" height="85" as="geometry"/>
                </mxCell>
                <mxCell id="141" value="return select query result" style="html=1;verticalAlign=bottom;endArrow=open;dashed=1;endSize=8;edgeStyle=elbowEdgeStyle;elbow=vertical;curved=0;rounded=0;" edge="1" parent="1">
                    <mxGeometry x="-0.0456" y="20" relative="1" as="geometry">
                        <mxPoint x="823" y="386.00000000000006" as="sourcePoint"/>
                        <mxPoint x="628" y="386.1081081081081" as="targetPoint"/>
                        <mxPoint as="offset"/>
                    </mxGeometry>
                </mxCell>
                <mxCell id="143" value="" style="shape=table;startSize=0;container=1;collapsible=0;childLayout=tableLayout;fontColor=#F0F0F0;" vertex="1" parent="1">
                    <mxGeometry x="248.5" y="30" width="373" height="110" as="geometry"/>
                </mxCell>
                <mxCell id="144" value="" style="shape=tableRow;horizontal=0;startSize=0;swimlaneHead=0;swimlaneBody=0;top=0;left=0;bottom=0;right=0;collapsible=0;dropTarget=0;fillColor=none;points=[[0,0.5],[1,0.5]];portConstraint=eastwest;fontColor=#F0F0F0;" vertex="1" parent="143">
                    <mxGeometry width="373" height="30" as="geometry"/>
                </mxCell>
                <mxCell id="145" value="&lt;span style=&quot;font-family: &amp;quot;Helvetica Neue&amp;quot;; font-size: 13px; text-align: left;&quot; class=&quot;Apple-converted-space&quot;&gt;&amp;nbsp;&amp;nbsp;&lt;/span&gt;&lt;span style=&quot;font-family: &amp;quot;Helvetica Neue&amp;quot;; font-size: 13px; text-align: left;&quot;&gt;planId: number;&lt;/span&gt;" style="shape=partialRectangle;html=1;whiteSpace=wrap;connectable=0;overflow=hidden;fillColor=none;top=0;left=0;bottom=0;right=0;pointerEvents=1;fontColor=#F0F0F0;" vertex="1" parent="144">
                    <mxGeometry width="188" height="30" as="geometry">
                        <mxRectangle width="188" height="30" as="alternateBounds"/>
                    </mxGeometry>
                </mxCell>
                <mxCell id="146" value="&lt;p style=&quot;font-variant-numeric: normal; font-variant-east-asian: normal; font-stretch: normal; font-size: 13px; line-height: normal; font-family: &amp;quot;Helvetica Neue&amp;quot;; text-align: left; margin: 0px;&quot; class=&quot;p1&quot;&gt;&lt;span class=&quot;Apple-converted-space&quot;&gt;&amp;nbsp;&amp;nbsp;&lt;/span&gt;destination: string;&lt;/p&gt;" style="shape=partialRectangle;html=1;whiteSpace=wrap;connectable=0;overflow=hidden;fillColor=none;top=0;left=0;bottom=0;right=0;pointerEvents=1;fontColor=#F0F0F0;" vertex="1" parent="144">
                    <mxGeometry x="188" width="185" height="30" as="geometry">
                        <mxRectangle width="185" height="30" as="alternateBounds"/>
                    </mxGeometry>
                </mxCell>
                <mxCell id="147" value="" style="shape=tableRow;horizontal=0;startSize=0;swimlaneHead=0;swimlaneBody=0;top=0;left=0;bottom=0;right=0;collapsible=0;dropTarget=0;fillColor=none;points=[[0,0.5],[1,0.5]];portConstraint=eastwest;fontColor=#F0F0F0;" vertex="1" parent="143">
                    <mxGeometry y="30" width="373" height="26" as="geometry"/>
                </mxCell>
                <mxCell id="148" value="&lt;span style=&quot;font-family: &amp;quot;Helvetica Neue&amp;quot;; font-size: 13px; text-align: left;&quot;&gt;username: string;&lt;/span&gt;" style="shape=partialRectangle;html=1;whiteSpace=wrap;connectable=0;overflow=hidden;fillColor=none;top=0;left=0;bottom=0;right=0;pointerEvents=1;fontColor=#F0F0F0;" vertex="1" parent="147">
                    <mxGeometry width="188" height="26" as="geometry">
                        <mxRectangle width="188" height="26" as="alternateBounds"/>
                    </mxGeometry>
                </mxCell>
                <mxCell id="149" value="&lt;p style=&quot;font-variant-numeric: normal; font-variant-east-asian: normal; font-stretch: normal; font-size: 13px; line-height: normal; font-family: &amp;quot;Helvetica Neue&amp;quot;; text-align: left; margin: 0px;&quot; class=&quot;p1&quot;&gt;&lt;span class=&quot;Apple-converted-space&quot;&gt;&amp;nbsp;&amp;nbsp;&lt;/span&gt;locations: TravelLocation[];&lt;/p&gt;" style="shape=partialRectangle;html=1;whiteSpace=wrap;connectable=0;overflow=hidden;fillColor=none;top=0;left=0;bottom=0;right=0;pointerEvents=1;fontColor=#F0F0F0;" vertex="1" parent="147">
                    <mxGeometry x="188" width="185" height="26" as="geometry">
                        <mxRectangle width="185" height="26" as="alternateBounds"/>
                    </mxGeometry>
                </mxCell>
                <mxCell id="150" value="" style="shape=tableRow;horizontal=0;startSize=0;swimlaneHead=0;swimlaneBody=0;top=0;left=0;bottom=0;right=0;collapsible=0;dropTarget=0;fillColor=none;points=[[0,0.5],[1,0.5]];portConstraint=eastwest;fontColor=#F0F0F0;" vertex="1" parent="143">
                    <mxGeometry y="56" width="373" height="29" as="geometry"/>
                </mxCell>
                <mxCell id="151" value="&lt;span style=&quot;font-family: &amp;quot;Helvetica Neue&amp;quot;; font-size: 13px; text-align: left;&quot;&gt;startDate, endDate: Date;&lt;/span&gt;" style="shape=partialRectangle;html=1;whiteSpace=wrap;connectable=0;overflow=hidden;fillColor=none;top=0;left=0;bottom=0;right=0;pointerEvents=1;fontColor=#F0F0F0;" vertex="1" parent="150">
                    <mxGeometry width="188" height="29" as="geometry">
                        <mxRectangle width="188" height="29" as="alternateBounds"/>
                    </mxGeometry>
                </mxCell>
                <mxCell id="152" value="&lt;span style=&quot;font-family: &amp;quot;Helvetica Neue&amp;quot;; font-size: 13px; text-align: left;&quot;&gt;createdAt, updatedAt: Date;&lt;/span&gt;" style="shape=partialRectangle;html=1;whiteSpace=wrap;connectable=0;overflow=hidden;fillColor=none;top=0;left=0;bottom=0;right=0;pointerEvents=1;fontColor=#F0F0F0;" vertex="1" parent="150">
                    <mxGeometry x="188" width="185" height="29" as="geometry">
                        <mxRectangle width="185" height="29" as="alternateBounds"/>
                    </mxGeometry>
                </mxCell>
                <mxCell id="153" value="" style="shape=tableRow;horizontal=0;startSize=0;swimlaneHead=0;swimlaneBody=0;top=0;left=0;bottom=0;right=0;collapsible=0;dropTarget=0;fillColor=none;points=[[0,0.5],[1,0.5]];portConstraint=eastwest;fontColor=#F0F0F0;" vertex="1" parent="143">
                    <mxGeometry y="85" width="373" height="25" as="geometry"/>
                </mxCell>
                <mxCell id="154" value="&lt;p style=&quot;font-variant-numeric: normal; font-variant-east-asian: normal; font-stretch: normal; font-size: 13px; line-height: normal; font-family: &amp;quot;Helvetica Neue&amp;quot;; text-align: left; margin: 0px;&quot; class=&quot;p1&quot;&gt;dates?: TravelDate[];&lt;br&gt;&lt;/p&gt;" style="shape=partialRectangle;html=1;whiteSpace=wrap;connectable=0;overflow=hidden;fillColor=none;top=0;left=0;bottom=0;right=0;pointerEvents=1;fontColor=#F0F0F0;" vertex="1" parent="153">
                    <mxGeometry width="188" height="25" as="geometry">
                        <mxRectangle width="188" height="25" as="alternateBounds"/>
                    </mxGeometry>
                </mxCell>
                <mxCell id="155" value="&lt;span style=&quot;font-family: &amp;quot;Helvetica Neue&amp;quot;; font-size: 13px; text-align: left;&quot;&gt;TravelDate[] : 기존 dates참고&lt;/span&gt;" style="shape=partialRectangle;html=1;whiteSpace=wrap;connectable=0;overflow=hidden;fillColor=none;top=0;left=0;bottom=0;right=0;pointerEvents=1;fontColor=#F0F0F0;" vertex="1" parent="153">
                    <mxGeometry x="188" width="185" height="25" as="geometry">
                        <mxRectangle width="185" height="25" as="alternateBounds"/>
                    </mxGeometry>
                </mxCell>
                <mxCell id="156" value="check username" style="html=1;align=left;spacingLeft=2;endArrow=block;rounded=0;edgeStyle=orthogonalEdgeStyle;curved=0;rounded=0;" edge="1" parent="1">
                    <mxGeometry x="-0.1958" y="4" relative="1" as="geometry">
                        <mxPoint x="628" y="416.97448275862075" as="sourcePoint"/>
                        <Array as="points">
                            <mxPoint x="628" y="410"/>
                            <mxPoint x="656" y="410"/>
                            <mxPoint x="656" y="450"/>
                            <mxPoint x="629" y="450"/>
                        </Array>
                        <mxPoint x="630" y="450" as="targetPoint"/>
                        <mxPoint as="offset"/>
                    </mxGeometry>
                </mxCell>
                <mxCell id="157" value="not exist" style="shape=umlFrame;whiteSpace=wrap;html=1;pointerEvents=0;fillColor=#f8cecc;strokeColor=#b85450;width=90;height=26;" vertex="1" parent="1">
                    <mxGeometry x="30" y="420" width="620" height="56" as="geometry"/>
                </mxCell>
                <mxCell id="194" value="logged in" style="shape=umlFrame;whiteSpace=wrap;html=1;pointerEvents=0;fillColor=#d5e8d4;strokeColor=#82b366;width=90;height=30;" vertex="1" parent="1">
                    <mxGeometry x="21" y="790" width="830" height="220" as="geometry"/>
                </mxCell>
                <mxCell id="195" value="find planId&lt;br&gt;to getTravelPlanDetails" style="html=1;verticalAlign=bottom;endArrow=none;edgeStyle=elbowEdgeStyle;elbow=vertical;curved=0;rounded=0;startArrow=none;startFill=1;endFill=0;" edge="1" parent="1" source="232">
                    <mxGeometry x="1" y="112" relative="1" as="geometry">
                        <mxPoint x="823.3000000000002" y="804" as="sourcePoint"/>
                        <Array as="points">
                            <mxPoint x="965.3" y="704"/>
                        </Array>
                        <mxPoint x="624" y="804" as="targetPoint"/>
                        <mxPoint x="-6" y="36" as="offset"/>
                    </mxGeometry>
                </mxCell>
                <mxCell id="196" value="exist" style="shape=umlFrame;whiteSpace=wrap;html=1;pointerEvents=0;fillColor=#d5e8d4;strokeColor=#82b366;width=90;height=30;" vertex="1" parent="1">
                    <mxGeometry x="31" y="948" width="810" height="52" as="geometry"/>
                </mxCell>
                <mxCell id="197" value="response BAD REQUEST" style="html=1;verticalAlign=bottom;endArrow=open;dashed=1;endSize=8;edgeStyle=elbowEdgeStyle;elbow=vertical;curved=0;rounded=0;" edge="1" parent="1">
                    <mxGeometry x="0.1478" relative="1" as="geometry">
                        <mxPoint x="614.9499999999998" y="750.6700000000001" as="sourcePoint"/>
                        <mxPoint x="451.9954545454543" y="750.6700000000001" as="targetPoint"/>
                        <mxPoint as="offset"/>
                        <Array as="points">
                            <mxPoint x="624.95" y="750.67"/>
                        </Array>
                    </mxGeometry>
                </mxCell>
                <mxCell id="198" value="response travelPlanData" style="html=1;verticalAlign=bottom;endArrow=open;dashed=1;endSize=8;edgeStyle=elbowEdgeStyle;elbow=vertical;curved=0;rounded=0;" edge="1" parent="1">
                    <mxGeometry x="0.0877" relative="1" as="geometry">
                        <mxPoint x="620.0000000000005" y="971.2" as="sourcePoint"/>
                        <mxPoint x="453" y="971.5" as="targetPoint"/>
                        <mxPoint as="offset"/>
                    </mxGeometry>
                </mxCell>
                <mxCell id="199" value="response BAD REQUEST" style="html=1;verticalAlign=bottom;endArrow=open;dashed=1;endSize=8;edgeStyle=elbowEdgeStyle;elbow=vertical;curved=0;rounded=0;" edge="1" parent="1">
                    <mxGeometry x="0.1478" relative="1" as="geometry">
                        <mxPoint x="615.9499999999998" y="911.5" as="sourcePoint"/>
                        <mxPoint x="452.9954545454543" y="911.5" as="targetPoint"/>
                        <mxPoint as="offset"/>
                        <Array as="points">
                            <mxPoint x="625.95" y="911.5"/>
                        </Array>
                    </mxGeometry>
                </mxCell>
                <mxCell id="200" value="request to getTravelPlanDetails&lt;br&gt;with planId params" style="html=1;verticalAlign=bottom;startArrow=oval;endArrow=block;startSize=8;edgeStyle=elbowEdgeStyle;elbow=vertical;curved=0;rounded=0;" edge="1" parent="1">
                    <mxGeometry x="0.0109" relative="1" as="geometry">
                        <mxPoint x="271.8103448275863" y="699.8620689655173" as="sourcePoint"/>
                        <mxPoint x="443" y="699.8620689655173" as="targetPoint"/>
                        <Array as="points"/>
                        <mxPoint as="offset"/>
                    </mxGeometry>
                </mxCell>
                <mxCell id="209" value="" style="html=1;verticalAlign=bottom;endArrow=open;dashed=1;endSize=8;edgeStyle=elbowEdgeStyle;elbow=vertical;curved=0;rounded=0;" edge="1" parent="1">
                    <mxGeometry relative="1" as="geometry">
                        <mxPoint x="443" y="751" as="sourcePoint"/>
                        <mxPoint x="137" y="751" as="targetPoint"/>
                        <Array as="points">
                            <mxPoint x="371" y="751"/>
                        </Array>
                    </mxGeometry>
                </mxCell>
                <mxCell id="210" value="&lt;font style=&quot;font-size: 11px;&quot;&gt;redirect to login page&lt;br&gt;&lt;/font&gt;" style="text;html=1;align=center;verticalAlign=middle;resizable=0;points=[];autosize=1;strokeColor=none;fillColor=none;" vertex="1" parent="1">
                    <mxGeometry x="231" y="726" width="130" height="30" as="geometry"/>
                </mxCell>
                <mxCell id="211" value="" style="html=1;points=[];perimeter=orthogonalPerimeter;outlineConnect=0;targetShapes=umlLifeline;portConstraint=eastwest;newEdgeStyle={&quot;edgeStyle&quot;:&quot;elbowEdgeStyle&quot;,&quot;elbow&quot;:&quot;vertical&quot;,&quot;curved&quot;:0,&quot;rounded&quot;:0};" vertex="1" parent="1">
                    <mxGeometry x="443" y="900" width="10" height="25" as="geometry"/>
                </mxCell>
                <mxCell id="212" value="show travelPlanData" style="html=1;verticalAlign=bottom;endArrow=open;dashed=1;endSize=8;edgeStyle=elbowEdgeStyle;elbow=vertical;curved=0;rounded=0;" edge="1" parent="1">
                    <mxGeometry x="-0.0791" relative="1" as="geometry">
                        <mxPoint x="271" y="980" as="sourcePoint"/>
                        <mxPoint x="138" y="980.0199999999998" as="targetPoint"/>
                        <mxPoint as="offset"/>
                        <Array as="points"/>
                    </mxGeometry>
                </mxCell>
                <mxCell id="213" value="" style="html=1;points=[];perimeter=orthogonalPerimeter;outlineConnect=0;targetShapes=umlLifeline;portConstraint=eastwest;newEdgeStyle={&quot;edgeStyle&quot;:&quot;elbowEdgeStyle&quot;,&quot;elbow&quot;:&quot;vertical&quot;,&quot;curved&quot;:0,&quot;rounded&quot;:0};" vertex="1" parent="1">
                    <mxGeometry x="443" y="950" width="10" height="39" as="geometry"/>
                </mxCell>
                <mxCell id="214" value="show default message" style="html=1;verticalAlign=bottom;endArrow=open;dashed=1;endSize=8;edgeStyle=elbowEdgeStyle;elbow=horizontal;curved=0;rounded=0;" edge="1" parent="1">
                    <mxGeometry x="-0.0769" relative="1" as="geometry">
                        <mxPoint x="440.5" y="911.5" as="sourcePoint"/>
                        <mxPoint x="137.49999999999955" y="911.5" as="targetPoint"/>
                        <mxPoint as="offset"/>
                        <Array as="points">
                            <mxPoint x="350.5" y="911.5"/>
                        </Array>
                    </mxGeometry>
                </mxCell>
                <mxCell id="215" value="" style="html=1;points=[];perimeter=orthogonalPerimeter;outlineConnect=0;targetShapes=umlLifeline;portConstraint=eastwest;newEdgeStyle={&quot;edgeStyle&quot;:&quot;elbowEdgeStyle&quot;,&quot;elbow&quot;:&quot;vertical&quot;,&quot;curved&quot;:0,&quot;rounded&quot;:0};" vertex="1" parent="1">
                    <mxGeometry x="267" y="962" width="10" height="32" as="geometry"/>
                </mxCell>
                <mxCell id="216" value="render mypage" style="html=1;verticalAlign=bottom;endArrow=open;dashed=1;endSize=8;edgeStyle=elbowEdgeStyle;elbow=vertical;curved=0;rounded=0;" edge="1" parent="1" source="213">
                    <mxGeometry x="-0.0799" relative="1" as="geometry">
                        <mxPoint x="410" y="979.34" as="sourcePoint"/>
                        <mxPoint x="277" y="979.3600000000001" as="targetPoint"/>
                        <mxPoint as="offset"/>
                        <Array as="points"/>
                    </mxGeometry>
                </mxCell>
                <mxCell id="217" value="getTravelPlanDetails&lt;br&gt;ByPlanId" style="text;html=1;align=center;verticalAlign=middle;resizable=0;points=[];autosize=1;strokeColor=none;fillColor=none;fontSize=12;fontFamily=Helvetica;fontColor=default;" vertex="1" parent="1">
                    <mxGeometry y="670" width="130" height="40" as="geometry"/>
                </mxCell>
                <mxCell id="218" value="request getTravelPlanDetails&lt;br&gt;ByPlanId api" style="html=1;verticalAlign=bottom;endArrow=none;edgeStyle=elbowEdgeStyle;elbow=vertical;curved=0;rounded=0;startArrow=block;startFill=1;endFill=0;" edge="1" parent="1">
                    <mxGeometry relative="1" as="geometry">
                        <mxPoint x="619" y="700" as="sourcePoint"/>
                        <Array as="points">
                            <mxPoint x="601" y="700"/>
                            <mxPoint x="761" y="600"/>
                        </Array>
                        <mxPoint x="453" y="700" as="targetPoint"/>
                        <mxPoint as="offset"/>
                    </mxGeometry>
                </mxCell>
                <mxCell id="219" value="" style="html=1;points=[];perimeter=orthogonalPerimeter;outlineConnect=0;targetShapes=umlLifeline;portConstraint=eastwest;newEdgeStyle={&quot;edgeStyle&quot;:&quot;elbowEdgeStyle&quot;,&quot;elbow&quot;:&quot;vertical&quot;,&quot;curved&quot;:0,&quot;rounded&quot;:0};" vertex="1" parent="1">
                    <mxGeometry x="619" y="680.98" width="10" height="40" as="geometry"/>
                </mxCell>
                <mxCell id="220" value="check validateToken api" style="html=1;align=left;spacingLeft=2;endArrow=block;rounded=0;edgeStyle=orthogonalEdgeStyle;curved=0;rounded=0;" edge="1" parent="1">
                    <mxGeometry x="-0.1985" y="14" relative="1" as="geometry">
                        <mxPoint x="629" y="707.0144827586207" as="sourcePoint"/>
                        <Array as="points">
                            <mxPoint x="629" y="700"/>
                            <mxPoint x="657" y="700"/>
                            <mxPoint x="657" y="750"/>
                        </Array>
                        <mxPoint x="630.0000000000005" y="750" as="targetPoint"/>
                        <mxPoint as="offset"/>
                    </mxGeometry>
                </mxCell>
                <mxCell id="221" value="" style="html=1;points=[];perimeter=orthogonalPerimeter;outlineConnect=0;targetShapes=umlLifeline;portConstraint=eastwest;newEdgeStyle={&quot;edgeStyle&quot;:&quot;elbowEdgeStyle&quot;,&quot;elbow&quot;:&quot;vertical&quot;,&quot;curved&quot;:0,&quot;rounded&quot;:0};" vertex="1" parent="1">
                    <mxGeometry x="443" y="739" width="10" height="32" as="geometry"/>
                </mxCell>
                <mxCell id="223" value="not logged in" style="shape=umlFrame;whiteSpace=wrap;html=1;pointerEvents=0;fillColor=#f8cecc;strokeColor=#b85450;width=90;height=26;" vertex="1" parent="1">
                    <mxGeometry x="21" y="721.98" width="620" height="56" as="geometry"/>
                </mxCell>
                <mxCell id="224" value="" style="html=1;points=[];perimeter=orthogonalPerimeter;outlineConnect=0;targetShapes=umlLifeline;portConstraint=eastwest;newEdgeStyle={&quot;edgeStyle&quot;:&quot;elbowEdgeStyle&quot;,&quot;elbow&quot;:&quot;vertical&quot;,&quot;curved&quot;:0,&quot;rounded&quot;:0};" vertex="1" parent="1">
                    <mxGeometry x="824" y="795" width="10" height="85" as="geometry"/>
                </mxCell>
                <mxCell id="225" value="return select query result" style="html=1;verticalAlign=bottom;endArrow=open;dashed=1;endSize=8;edgeStyle=elbowEdgeStyle;elbow=vertical;curved=0;rounded=0;" edge="1" parent="1">
                    <mxGeometry x="-0.0456" y="20" relative="1" as="geometry">
                        <mxPoint x="824" y="846" as="sourcePoint"/>
                        <mxPoint x="629" y="846.1081081081081" as="targetPoint"/>
                        <mxPoint as="offset"/>
                    </mxGeometry>
                </mxCell>
                <mxCell id="227" value="check planId" style="html=1;align=left;spacingLeft=2;endArrow=block;rounded=0;edgeStyle=orthogonalEdgeStyle;curved=0;rounded=0;" edge="1" parent="1">
                    <mxGeometry x="-0.1958" y="4" relative="1" as="geometry">
                        <mxPoint x="629" y="876.9744827586205" as="sourcePoint"/>
                        <Array as="points">
                            <mxPoint x="629" y="870"/>
                            <mxPoint x="657" y="870"/>
                            <mxPoint x="657" y="910"/>
                            <mxPoint x="630" y="910"/>
                        </Array>
                        <mxPoint x="631" y="910" as="targetPoint"/>
                        <mxPoint as="offset"/>
                    </mxGeometry>
                </mxCell>
                <mxCell id="228" value="not exist" style="shape=umlFrame;whiteSpace=wrap;html=1;pointerEvents=0;fillColor=#f8cecc;strokeColor=#b85450;width=90;height=26;" vertex="1" parent="1">
                    <mxGeometry x="31" y="880" width="620" height="56" as="geometry"/>
                </mxCell>
                <mxCell id="229" value="" style="html=1;points=[];perimeter=orthogonalPerimeter;outlineConnect=0;targetShapes=umlLifeline;portConstraint=eastwest;newEdgeStyle={&quot;edgeStyle&quot;:&quot;elbowEdgeStyle&quot;,&quot;elbow&quot;:&quot;vertical&quot;,&quot;curved&quot;:0,&quot;rounded&quot;:0};" vertex="1" parent="1">
                    <mxGeometry x="267" y="684.98" width="10" height="32" as="geometry"/>
                </mxCell>
                <mxCell id="230" value="" style="html=1;points=[];perimeter=orthogonalPerimeter;outlineConnect=0;targetShapes=umlLifeline;portConstraint=eastwest;newEdgeStyle={&quot;edgeStyle&quot;:&quot;elbowEdgeStyle&quot;,&quot;elbow&quot;:&quot;vertical&quot;,&quot;curved&quot;:0,&quot;rounded&quot;:0};" vertex="1" parent="1">
                    <mxGeometry x="443" y="684.98" width="10" height="32" as="geometry"/>
                </mxCell>
                <mxCell id="231" value="" style="html=1;points=[];perimeter=orthogonalPerimeter;outlineConnect=0;targetShapes=umlLifeline;portConstraint=eastwest;newEdgeStyle={&quot;edgeStyle&quot;:&quot;elbowEdgeStyle&quot;,&quot;elbow&quot;:&quot;vertical&quot;,&quot;curved&quot;:0,&quot;rounded&quot;:0};" vertex="1" parent="1">
                    <mxGeometry x="619" y="739" width="10" height="32" as="geometry"/>
                </mxCell>
                <mxCell id="233" value="" style="html=1;verticalAlign=bottom;endArrow=none;edgeStyle=elbowEdgeStyle;elbow=vertical;curved=0;rounded=0;startArrow=block;startFill=1;endFill=0;" edge="1" parent="1" target="232">
                    <mxGeometry x="-0.0035" y="36" relative="1" as="geometry">
                        <mxPoint x="823.3000000000002" y="804" as="sourcePoint"/>
                        <Array as="points">
                            <mxPoint x="805.3" y="804"/>
                        </Array>
                        <mxPoint x="623.9999999999998" y="804" as="targetPoint"/>
                        <mxPoint as="offset"/>
                    </mxGeometry>
                </mxCell>
                <mxCell id="232" value="" style="html=1;points=[];perimeter=orthogonalPerimeter;outlineConnect=0;targetShapes=umlLifeline;portConstraint=eastwest;newEdgeStyle={&quot;edgeStyle&quot;:&quot;elbowEdgeStyle&quot;,&quot;elbow&quot;:&quot;vertical&quot;,&quot;curved&quot;:0,&quot;rounded&quot;:0};" vertex="1" parent="1">
                    <mxGeometry x="619" y="795" width="10" height="85" as="geometry"/>
                </mxCell>
                <mxCell id="234" value="" style="html=1;points=[];perimeter=orthogonalPerimeter;outlineConnect=0;targetShapes=umlLifeline;portConstraint=eastwest;newEdgeStyle={&quot;edgeStyle&quot;:&quot;elbowEdgeStyle&quot;,&quot;elbow&quot;:&quot;vertical&quot;,&quot;curved&quot;:0,&quot;rounded&quot;:0};" vertex="1" parent="1">
                    <mxGeometry x="619" y="900" width="10" height="85" as="geometry"/>
                </mxCell>
                <mxCell id="235" value="&lt;p style=&quot;margin:0px;margin-top:4px;text-align:center;text-decoration:underline;&quot;&gt;&lt;b&gt;req.params&lt;/b&gt;&lt;/p&gt;&lt;hr&gt;&lt;p style=&quot;margin:0px;margin-left:8px;&quot;&gt;planId: number&lt;/p&gt;" style="verticalAlign=top;align=left;overflow=fill;fontSize=12;fontFamily=Helvetica;html=1;whiteSpace=wrap;" vertex="1" parent="1">
                    <mxGeometry x="16" y="600" width="98" height="60" as="geometry"/>
                </mxCell>
            </root>
        </mxGraphModel>
    </diagram>
</mxfile>